<svg xmlns="http://www.w3.org/2000/svg" viewBox="38.47 185.25197072515553 728.25 385.1170290459627"> <svg xmlns="http://www.w3.org/2000/svg" xmlns:xlink="http://www.w3.org/1999/xlink" version="1.1" id="9999_1" x="340.7383565060278" y="255.25197072515553" viewBox="1988.689208984375 872.0679931640625 1023.41357421875 1261.0137939453125" xml:space="preserve" height="143.22466139591026" width="116.2383276613777" preserveAspectRatio="xMinYMin" enable-background="new 0 0 5000 3000" style="overflow: visible;"><path d="M3008.05,1908.66c0,0-3.19,0.58-3.19,0.58c13.76,94.46-64.07,160.87-146.75,186.27c-86.31,29.91-168.48,2.69-237.49-52.39   c-54.3-39.62-107.73-82.91-165.03-119.9c24.04-44.03,42.28-92.67,55.16-142.37c56.06-30.41,117.58-50.55,179.54-54.42   c9.49,2.51,18.76,5.9,27.64,9.82c43.47,17.52,73.75,53.29,112.43,78.15c7.6,5.47,15.58,10.66,24.66,15.07c0,0,1.8-1.64,1.8-1.64   c-15.72-36.36-45.93-63.63-81.22-80.61c-15.55-8.52-32.25-16-49.51-21.19c41.74,1.77,83.24,11.45,122.95,30.92   c36.49,16.33,69.75,39.74,102.67,65.78l1.81-1.63c-11.75-17.49-25.27-34.15-41.24-48.39c-30.38-28.7-65.73-47.03-103.41-57.03   c11.52-2.09,22.9-5.06,33.99-8.72c27.19-7.07,52.04-21.55,65.01-47.99c0,0-1.48-1.93-1.48-1.93c-26.78,4.44-48.82,17.83-71.12,32   c-16.3,8.31-33.23,15.85-50.81,21.35c-92.16-15.52-194.64,14.7-272.43,65.28c4.39-17.46,8.17-35.02,11.29-52.53   c17.84-26.27,40.42-49.23,65.21-68.57c56.81-45.22,127.68-69.62,198.96-78.54c51.72-9,103.31-10.93,155.74-15.76l0.21-2.42   c-20.82-4.43-42.01-7.64-63.32-10.22c-28.05-1.32-56.67-1.55-84.77,1.72c5.32-4.52,10.4-9.32,15.17-14.37   c18.35-16.93,30.7-39.52,26.52-65.61c0,0-2.28-0.85-2.28-0.85c-18.8,14.51-29.35,33.97-39.6,54.51   c-6.87,10.46-14.51,20.6-23.03,29.93c-6.81,1.34-13.58,2.84-20.28,4.73c-41.91,10.56-83.54,27.58-121.08,50.74   c5.27-6.48,10.32-13.15,15.11-20.02c34.48-53.8,62.18-120,43.92-184.42l-2.43-0.06c-4.15,10.39-6.64,20.63-9.23,30.76   c-8.79,29.65-13.04,60.14-20.35,90.1c-10.34,33.49-24.27,66.67-44.87,95.34c-34.76,24.24-65.08,54.18-87.4,89.84   c8.01-49.71,11.11-98.69,9.78-143.27c-1.3-43.39-7.16-87.23-18.2-129.36c4.32-24.21,10.84-47.99,19.23-70.91   c33.91-101.47,113.54-173.57,198.78-234c0,0-1.02-2.21-1.03-2.21c-60.18,15.43-109,52.54-145.54,100.68   c1.96-6.94,3.67-13.96,5.11-21.04l4.49-21.3c2.38-14.49,0.83-29.3-3.76-43.3c-2.03-7.06-5.47-13.9-9.67-20.33   c0,0-2.4,0.38-2.4,0.38c-8.98,28.42-8.43,53.47-7.97,82.03c-1.01,17.99-3.14,36.04-6.43,53.87   c-29.5,48.8-47.98,105.41-54.71,161.19c-2.79-11-6.21-25.11-7.92-33.37c-30.77-143.03-28-295.44,18.9-434.92l-2.95-1.34   c-13.21,26.96-22.7,55.39-30.88,84.2c-4.43,15.66-8.1,31.5-11.43,47.41c-5.47-34.46-19.18-71.32-54.65-82.6   c-3.71-1.07-7.34-2.12-11.16-2.58c0,0-1.27,2.07-1.27,2.07c14.83,24.73,29.09,42.44,43.29,66c7.91,16.24,13.64,33.8,17.43,51.76   c-9.52,60.07-11.68,121.32-6.94,182.09c-1.31-2.37-2.6-4.74-3.99-7.07c-17.92-29.47-43.34-53.42-72.73-70.76   c-11.99-19.83-18.29-43.19-17.98-66.11c-0.57-19.37-2.95-37.68-9.03-56.64c0,0-2.4-0.4-2.4-0.4   c-17.21,23.47-17.38,54.01-6.49,80.12c3.91,11.43,9.36,22.54,16.19,32.63c-47.46-22.01-102.59-27.73-153.14-12.57   c0,0,0.14,2.43,0.14,2.43c15.01,2.79,29.87,4.73,44.78,6.97c42.74,8.04,86.21,15.09,125.23,34.79   c34.7,18.34,63.18,47.57,81.95,82.19c4.18,37.66,10.88,75.65,20.28,112.09c17.98,70.53,21.07,143.65,17.17,216.51   c-2.76,41.34-7.93,84.16-16.78,126.32c-3.13-37.48-17.17-74.11-40.14-104.19c-26.15-34.71-66.2-66.96-112.22-91.74   c-11.56-17.81-15.76-40.69-17.07-61.51c-1.65-22.18,3.79-44.11,4.71-66.16c0.55-18.51,1.87-36.72-0.76-55.44l-2.36-0.57   c-17.88,28.67-26.56,62.23-22.55,95.67c1.65,26.05,7.08,56.52,21.65,79.65c-82.33-39.94-179.97-55.42-251.48-19.65   c-25.79,12.53-47.64,35.79-54.9,63.65c0,0,2.26,0.9,2.26,0.9c26.69-48.46,85.36-61.28,136.63-60.42   c87.32,1.03,192.48,33.98,260.76,96.1c-11.57-4.81-24-7.82-36.29-9.75c-50.1-5.5-105.69,1.96-142.22,39.83l1.05,2.19   c9.62-0.44,18.49-2,27.11-3.97c25.92-3.81,49.71-13.69,74.96-19.61c28.95-5.61,60.63-7.14,88.42,3.94   c33.79,35.28,55.92,78.88,58.1,130.38c-9.54,39.91-22.66,78.89-40.46,115.11c-14.69-9.17-29.57-18.03-44.88-26.13   c-94.54-49.72-260.19-104.58-355.07-34.38c-26.73,19.07-47.65,47.91-53.6,80.78c-11.44,66.38,33.71,128.6,93.11,152.69   c56.99,23.98,121.22,22.44,179.7,5.86c74.86-23.76,132.24-75.87,174.62-141.75c56.13,36.01,109.36,77.43,164.35,115.7   c111.55,83.9,230.44,86.84,342.95,1.93C2994.07,2033.99,3023.29,1968.92,3008.05,1908.66z M2338.56,2046.68   c-69.99,50.72-169.02,62.67-247.72,26.46c-49.93-22.46-86.37-77.79-75.36-131.97c5.47-25.44,22.62-47.57,44.91-62.49   c72.73-47.93,167.17-20.08,243.64,5.93c43.73,15.88,84.36,37.5,123.47,61.94C2404.6,1984.88,2375.49,2019.12,2338.56,2046.68z" style="fill: #CD8E33; fill-opacity: 1;"></path><path d="M2243.53,1490.81c0,0,19.22-59.42-61.2-57.62C2182.33,1433.19,2178.01,1486.42,2243.53,1490.81z" style="fill: #CD8E33; fill-opacity: 1;"></path><path d="M2230.17,1615.83c0,0-48.86-27.65-81.58,29.96C2148.59,1645.79,2198.24,1654.38,2230.17,1615.83z" style="fill: #CD8E33; fill-opacity: 1;"></path><path d="M2322.6,1161.95c0,0,13.88-47.22-71.05-66.1C2251.55,1095.86,2248.22,1160.68,2322.6,1161.95z" style="fill: #CD8E33; fill-opacity: 1;"></path><path d="M2299.39,1278.61c0,0,51.7,40.46,101.19,11.84C2400.57,1290.45,2370.96,1231.33,2299.39,1278.61z" style="fill: #CD8E33; fill-opacity: 1;"></path><path d="M2467.57,986.78c0,0,49.23-45.39-30.86-95.11C2436.71,891.68,2411.92,971.2,2467.57,986.78z" style="fill: #CD8E33; fill-opacity: 1;"></path><path d="M2664.23,1065.94c-68.74,40.67-35.07,85.37-35.07,85.37C2679.44,1133.69,2664.23,1065.94,2664.23,1065.94z" style="fill: #CD8E33; fill-opacity: 1;"></path><path d="M2676.34,1273.61c-92.72-3.11-75.4,53.34-75.4,53.34C2653.33,1335.92,2676.34,1273.61,2676.34,1273.61z" style="fill: #CD8E33; fill-opacity: 1;"></path><path d="M2612.28,1561.91c40.37-37.04-3.09-88.89-3.09-88.89C2561.62,1543.59,2612.28,1561.91,2612.28,1561.91z" style="fill: #CD8E33; fill-opacity: 1;"></path><path d="M2730.95,1510.85c57.42,3.67,43.19-72.63,43.19-72.63C2693.95,1458.72,2730.95,1510.85,2730.95,1510.85z" style="fill: #CD8E33; fill-opacity: 1;"></path><path d="M2946.92,1471.58c-80.25,2.12-78.18,44.95-78.18,44.95C2925.16,1517.36,2946.92,1471.58,2946.92,1471.58z" style="fill: #CD8E33; fill-opacity: 1;"></path><path d="M2726.39,1621.59c32.77,34.8,81.91,3.37,81.91,3.37C2756.51,1581.99,2726.39,1621.59,2726.39,1621.59z" style="fill: #CD8E33; fill-opacity: 1;"></path><path d="M2884.92,1715.79c36.02,35.83,87.34,3.59,87.34,3.59C2918.97,1669.4,2884.92,1715.79,2884.92,1715.79z" style="fill: #CD8E33; fill-opacity: 1;"></path><path d="M2740.94,1823.94c0,0,20.21-50.81-45.23-66.17C2695.72,1757.76,2668.1,1808.65,2740.94,1823.94z" style="fill: #CD8E33; fill-opacity: 1;"></path><path d="M2578.3,1032.03c2.63,0.11,4.86-1.94,4.97-4.57c0.11-2.63-1.94-4.86-4.57-4.96c-2.63-0.11-4.85,1.94-4.96,4.57   C2573.62,1029.7,2575.67,1031.93,2578.3,1032.03z" style="fill: #CD8E33; fill-opacity: 1;"></path><path d="M2653.74,900.6c7.88,0.32,14.52-5.8,14.85-13.67c0.32-7.88-5.8-14.52-13.67-14.85c-7.88-0.32-14.52,5.8-14.85,13.67   C2639.75,893.63,2645.87,900.27,2653.74,900.6z" style="fill: #CD8E33; fill-opacity: 1;"></path><path d="M2830.24,1137.74c4.99,0.2,9.2-3.67,9.4-8.66c0.2-4.99-3.67-9.2-8.66-9.4c-4.99-0.2-9.2,3.67-9.4,8.66   C2821.37,1133.32,2825.25,1137.53,2830.24,1137.74z" style="fill: #CD8E33; fill-opacity: 1;"></path><path d="M2777.26,1317.82c7.3,0.3,13.46-5.37,13.76-12.67c0.3-7.3-5.37-13.46-12.67-13.76c-7.3-0.3-13.46,5.37-13.76,12.67   C2764.29,1311.36,2769.96,1317.52,2777.26,1317.82z" style="fill: #CD8E33; fill-opacity: 1;"></path><path d="M2254.29,923.24c4.49,0.18,8.28-3.31,8.47-7.8c0.18-4.49-3.31-8.28-7.8-8.47c-4.49-0.18-8.28,3.31-8.47,7.8   C2246.31,919.26,2249.8,923.05,2254.29,923.24z" style="fill: #CD8E33; fill-opacity: 1;"></path><path d="M2258.07,1349.91c0.19-4.68-3.44-8.62-8.12-8.81c-4.68-0.19-8.62,3.44-8.81,8.12c-0.19,4.68,3.44,8.62,8.12,8.81   C2253.93,1358.22,2257.87,1354.58,2258.07,1349.91z" style="fill: #CD8E33; fill-opacity: 1;"></path><path d="M2063.44,1304.86c7.34,0.3,13.55-5.41,13.85-12.75c0.3-7.35-5.41-13.54-12.75-13.85c-7.35-0.3-13.54,5.41-13.85,12.75   C2050.39,1298.36,2056.1,1304.56,2063.44,1304.86z" style="fill: #CD8E33; fill-opacity: 1;"></path><path d="M2059.08,1411c-0.15,3.67,2.7,6.77,6.38,6.92c3.67,0.15,6.77-2.7,6.92-6.38c0.15-3.67-2.7-6.77-6.38-6.92   C2062.33,1404.48,2059.23,1407.33,2059.08,1411z" style="fill: #CD8E33; fill-opacity: 1;"></path><path d="M2960.67,1381.47c5.54,0.23,10.21-4.08,10.44-9.61c0.23-5.54-4.08-10.21-9.61-10.44c-5.54-0.23-10.21,4.08-10.44,9.61   C2950.83,1376.56,2955.13,1381.24,2960.67,1381.47z" style="fill: #CD8E33; fill-opacity: 1;"></path><path d="M3001.27,1621.95c3.94,0.16,7.26-2.9,7.42-6.84c0.16-3.94-2.9-7.26-6.84-7.42c-3.94-0.16-7.26,2.9-7.42,6.84   C2994.27,1618.46,2997.33,1621.79,3001.27,1621.95z" style="fill: #CD8E33; fill-opacity: 1;"></path><path d="M2104.31,1691.97c0.19-4.56-3.36-8.41-7.92-8.6c-4.56-0.19-8.41,3.36-8.6,7.92c-0.19,4.56,3.36,8.41,7.92,8.6   C2100.28,1700.08,2104.13,1696.53,2104.31,1691.97z" style="fill: #CD8E33; fill-opacity: 1;"></path><path d="M2349.07,1754.68c0.29-7.01-5.16-12.92-12.17-13.21c-7.01-0.29-12.92,5.16-13.21,12.16c-0.29,7.01,5.16,12.92,12.17,13.21   C2342.86,1767.14,2348.78,1761.69,2349.07,1754.68z" style="fill: #CD8E33; fill-opacity: 1;"></path><path d="M2402.73,1508.91c6.14,0.25,11.32-4.52,11.57-10.66c0.25-6.14-4.52-11.32-10.66-11.57c-6.14-0.25-11.32,4.52-11.57,10.66   S2396.59,1508.66,2402.73,1508.91z" style="fill: #CD8E33; fill-opacity: 1;"></path></svg> <svg y="482.379" viewBox="0.5 6.739999771118164 415.4100036621094 17.989999771118164" x="183.76000305175782" height="17.989999771118164" width="415.4100036621094" style="overflow: visible;"><g fill="#545454" fill-opacity="1" style=""><path d="M10.42 8.48L6.25 8.48L6.25 24.49L4.68 24.49L4.68 8.48L0.50 8.48L0.50 6.98L10.42 6.98L10.42 8.48ZM29.02 20.43L29.02 20.43Q29.02 21.33 28.69 22.11Q28.35 22.89 27.76 23.47Q27.18 24.06 26.40 24.40Q25.62 24.73 24.73 24.73L24.73 24.73L23.48 24.73Q22.59 24.73 21.80 24.40Q21.01 24.06 20.43 23.47Q19.84 22.89 19.51 22.11Q19.17 21.33 19.17 20.43L19.17 20.43L19.17 6.98L20.75 6.98L20.75 20.43Q20.75 21.02 20.97 21.53Q21.19 22.03 21.57 22.42Q21.95 22.80 22.46 23.02Q22.97 23.24 23.55 23.24L23.55 23.24L24.65 23.24Q25.24 23.24 25.74 23.02Q26.25 22.80 26.63 22.42Q27.01 22.03 27.23 21.53Q27.45 21.02 27.45 20.43L27.45 20.43L27.45 6.98L29.02 6.98L29.02 20.43ZM49.33 24.49L47.51 24.49L42.76 17.02L40.60 17.02L40.60 24.49L39.03 24.49L39.03 6.98L44.58 6.98Q45.47 6.98 46.25 7.32Q47.03 7.65 47.62 8.24Q48.21 8.83 48.54 9.61Q48.88 10.40 48.88 11.29L48.88 11.29L48.88 12.71Q48.88 13.60 48.54 14.39Q48.21 15.17 47.62 15.76Q47.03 16.35 46.25 16.68Q45.47 17.02 44.58 17.02L44.58 17.02L49.33 24.49ZM47.30 12.71L47.30 11.29Q47.30 10.71 47.08 10.20Q46.86 9.69 46.48 9.31Q46.11 8.92 45.60 8.70Q45.09 8.48 44.51 8.48L44.51 8.48L40.60 8.48L40.60 15.52L44.51 15.52Q45.09 15.52 45.60 15.30Q46.11 15.08 46.48 14.69Q46.86 14.31 47.08 13.80Q47.30 13.29 47.30 12.71L47.30 12.71ZM68.68 24.49L67.85 24.49L60.55 11.74L60.41 10.99L60.41 24.49L58.83 24.49L58.83 6.98L59.65 6.98L66.95 19.74L67.11 20.48L67.11 6.98L68.68 6.98L68.68 24.49ZM80.76 24.49L79.19 24.49L79.19 6.98L80.76 6.98L80.76 24.49ZM101.12 24.49L100.29 24.49L92.99 11.74L92.84 10.99L92.84 24.49L91.26 24.49L91.26 6.98L92.08 6.98L99.38 19.74L99.54 20.48L99.54 6.98L101.12 6.98L101.12 24.49ZM121.21 15.28L121.21 24.49L120.71 24.49L119.80 23.08Q119.22 23.84 118.41 24.29Q117.59 24.73 116.59 24.73L116.59 24.73L115.67 24.73Q114.78 24.73 113.99 24.40Q113.21 24.06 112.62 23.47Q112.03 22.89 111.70 22.11Q111.36 21.33 111.36 20.43L111.36 20.43L111.36 11.04Q111.36 10.14 111.70 9.36Q112.03 8.58 112.62 8.00Q113.21 7.41 113.99 7.07Q114.78 6.74 115.67 6.74L115.67 6.74L116.92 6.74Q117.81 6.74 118.59 7.07Q119.37 7.41 119.96 8.00Q120.54 8.58 120.88 9.36Q121.21 10.14 121.21 11.04L121.21 11.04L121.21 11.74L119.64 11.99L119.64 11.04Q119.64 10.45 119.42 9.94Q119.20 9.44 118.82 9.06Q118.44 8.68 117.94 8.46Q117.43 8.24 116.84 8.24L116.84 8.24L115.75 8.24Q115.16 8.24 114.65 8.46Q114.15 8.68 113.76 9.06Q113.38 9.44 113.16 9.94Q112.94 10.45 112.94 11.04L112.94 11.04L112.94 20.43Q112.94 21.02 113.16 21.53Q113.38 22.03 113.76 22.42Q114.15 22.80 114.65 23.02Q115.16 23.24 115.75 23.24L115.75 23.24L116.84 23.24Q117.43 23.24 117.94 23.02Q118.44 22.80 118.82 22.42Q119.20 22.03 119.42 21.53Q119.64 21.02 119.64 20.43L119.64 20.43L119.64 16.78L116.84 16.78L116.84 15.28L121.21 15.28ZM153.32 19.91L153.32 20.43Q153.32 21.33 152.96 22.11Q152.60 22.89 151.99 23.47Q151.39 24.06 150.59 24.40Q149.79 24.73 148.90 24.73L148.90 24.73L147.64 24.73Q146.75 24.73 145.95 24.40Q145.15 24.06 144.55 23.47Q143.94 22.89 143.58 22.11Q143.22 21.33 143.22 20.43L143.22 20.43L143.22 19.74L144.80 19.48L144.80 20.43Q144.80 21.02 145.04 21.53Q145.27 22.03 145.68 22.42Q146.08 22.80 146.61 23.02Q147.14 23.24 147.73 23.24L147.73 23.24L148.83 23.24Q149.41 23.24 149.94 23.02Q150.46 22.80 150.86 22.42Q151.27 22.03 151.51 21.53Q151.74 21.02 151.74 20.43L151.74 20.43L151.74 19.91Q151.74 19.01 151.39 18.41Q151.04 17.81 150.45 17.39Q149.86 16.97 149.13 16.67Q148.39 16.38 147.61 16.09Q146.82 15.80 146.09 15.44Q145.35 15.09 144.76 14.56Q144.18 14.03 143.82 13.26Q143.47 12.49 143.47 11.36L143.47 11.36L143.47 11.04Q143.47 10.14 143.80 9.36Q144.14 8.58 144.72 8.00Q145.31 7.41 146.10 7.07Q146.89 6.74 147.78 6.74L147.78 6.74L148.90 6.74Q149.79 6.74 150.57 7.07Q151.35 7.41 151.94 8.00Q152.52 8.58 152.86 9.36Q153.20 10.14 153.20 11.04L153.20 11.04L153.20 11.49L151.62 11.74L151.62 11.04Q151.62 10.45 151.40 9.94Q151.18 9.44 150.80 9.06Q150.43 8.68 149.92 8.46Q149.41 8.24 148.83 8.24L148.83 8.24L147.85 8.24Q147.26 8.24 146.76 8.46Q146.25 8.68 145.87 9.06Q145.48 9.44 145.26 9.94Q145.04 10.45 145.04 11.04L145.04 11.04L145.04 11.36Q145.04 12.21 145.40 12.78Q145.75 13.35 146.34 13.76Q146.92 14.17 147.66 14.47Q148.40 14.77 149.18 15.08Q149.96 15.39 150.70 15.77Q151.44 16.14 152.02 16.68Q152.61 17.22 152.96 18.01Q153.32 18.79 153.32 19.91L153.32 19.91ZM172.79 20.43L172.79 20.43Q172.79 21.33 172.46 22.11Q172.12 22.89 171.54 23.47Q170.95 24.06 170.17 24.40Q169.39 24.73 168.50 24.73L168.50 24.73L167.25 24.73Q166.36 24.73 165.57 24.40Q164.79 24.06 164.20 23.47Q163.61 22.89 163.28 22.11Q162.94 21.33 162.94 20.43L162.94 20.43L162.94 11.04Q162.94 10.14 163.28 9.36Q163.61 8.58 164.20 8.00Q164.79 7.41 165.57 7.07Q166.36 6.74 167.25 6.74L167.25 6.74L168.50 6.74Q169.39 6.74 170.17 7.07Q170.95 7.41 171.54 8.00Q172.12 8.58 172.46 9.36Q172.79 10.14 172.79 11.04L172.79 11.04L172.79 20.43ZM171.22 20.43L171.22 11.04Q171.22 10.45 171 9.94Q170.78 9.44 170.40 9.06Q170.02 8.68 169.52 8.46Q169.01 8.24 168.42 8.24L168.42 8.24L167.33 8.24Q166.74 8.24 166.23 8.46Q165.73 8.68 165.34 9.06Q164.96 9.44 164.74 9.94Q164.52 10.45 164.52 11.04L164.52 11.04L164.52 20.43Q164.52 21.02 164.74 21.53Q164.96 22.03 165.34 22.42Q165.73 22.80 166.23 23.02Q166.74 23.24 167.33 23.24L167.33 23.24L168.42 23.24Q169.01 23.24 169.52 23.02Q170.02 22.80 170.40 22.42Q170.78 22.03 171 21.53Q171.22 21.02 171.22 20.43L171.22 20.43ZM184.63 24.49L183.05 24.49L183.05 6.98L184.63 6.98L184.63 24.49ZM203.15 24.49L194.88 24.49L194.88 6.98L196.45 6.98L196.45 22.99L203.15 22.99L203.15 24.49ZM225.98 24.49L224.40 24.49L224.40 6.98L225.98 6.98L225.98 24.49ZM246.33 24.49L245.50 24.49L238.20 11.74L238.06 10.99L238.06 24.49L236.48 24.49L236.48 6.98L237.30 6.98L244.60 19.74L244.76 20.48L244.76 6.98L246.33 6.98L246.33 24.49ZM265.26 8.48L261.09 8.48L261.09 24.49L259.51 24.49L259.51 8.48L255.34 8.48L255.34 6.98L265.26 6.98L265.26 8.48ZM283.86 20.43L283.86 20.43Q283.86 21.33 283.52 22.11Q283.19 22.89 282.60 23.47Q282.02 24.06 281.23 24.40Q280.45 24.73 279.56 24.73L279.56 24.73L278.32 24.73Q277.43 24.73 276.64 24.40Q275.85 24.06 275.26 23.47Q274.68 22.89 274.34 22.11Q274.01 21.33 274.01 20.43L274.01 20.43L274.01 11.04Q274.01 10.14 274.34 9.36Q274.68 8.58 275.26 8.00Q275.85 7.41 276.64 7.07Q277.43 6.74 278.32 6.74L278.32 6.74L279.56 6.74Q280.45 6.74 281.23 7.07Q282.02 7.41 282.60 8.00Q283.19 8.58 283.52 9.36Q283.86 10.14 283.86 11.04L283.86 11.04L283.86 20.43ZM282.28 20.43L282.28 11.04Q282.28 10.45 282.06 9.94Q281.84 9.44 281.47 9.06Q281.09 8.68 280.58 8.46Q280.07 8.24 279.49 8.24L279.49 8.24L278.39 8.24Q277.80 8.24 277.30 8.46Q276.79 8.68 276.41 9.06Q276.02 9.44 275.80 9.94Q275.58 10.45 275.58 11.04L275.58 11.04L275.58 20.43Q275.58 21.02 275.80 21.53Q276.02 22.03 276.41 22.42Q276.79 22.80 277.30 23.02Q277.80 23.24 278.39 23.24L278.39 23.24L279.49 23.24Q280.07 23.24 280.58 23.02Q281.09 22.80 281.47 22.42Q281.84 22.03 282.06 21.53Q282.28 21.02 282.28 20.43L282.28 20.43ZM316.22 20.19L316.22 20.19Q316.22 21.08 315.88 21.86Q315.55 22.64 314.96 23.23Q314.38 23.82 313.59 24.15Q312.80 24.49 311.91 24.49L311.91 24.49L306.37 24.49L306.37 6.98L311.91 6.98Q312.80 6.98 313.59 7.32Q314.38 7.65 314.96 8.24Q315.55 8.83 315.88 9.61Q316.22 10.40 316.22 11.29L316.22 11.29L316.22 20.19ZM314.64 20.19L314.64 11.29Q314.64 10.71 314.42 10.20Q314.20 9.69 313.82 9.31Q313.44 8.92 312.93 8.70Q312.42 8.48 311.84 8.48L311.84 8.48L307.94 8.48L307.94 22.99L311.84 22.99Q312.42 22.99 312.93 22.77Q313.44 22.55 313.82 22.17Q314.20 21.79 314.42 21.28Q314.64 20.78 314.64 20.19L314.64 20.19ZM336.51 24.49L334.69 24.49L329.95 17.02L327.78 17.02L327.78 24.49L326.21 24.49L326.21 6.98L331.76 6.98Q332.66 6.98 333.44 7.32Q334.22 7.65 334.80 8.24Q335.39 8.83 335.73 9.61Q336.06 10.40 336.06 11.29L336.06 11.29L336.06 12.71Q336.06 13.60 335.73 14.39Q335.39 15.17 334.80 15.76Q334.22 16.35 333.44 16.68Q332.66 17.02 331.76 17.02L331.76 17.02L336.51 24.49ZM334.49 12.71L334.49 11.29Q334.49 10.71 334.27 10.20Q334.05 9.69 333.67 9.31Q333.29 8.92 332.78 8.70Q332.28 8.48 331.69 8.48L331.69 8.48L327.78 8.48L327.78 15.52L331.69 15.52Q332.28 15.52 332.78 15.30Q333.29 15.08 333.67 14.69Q334.05 14.31 334.27 13.80Q334.49 13.29 334.49 12.71L334.49 12.71ZM355.87 24.49L346.02 24.49L346.02 6.98L355.87 6.98L355.87 8.48L347.59 8.48L347.59 14.99L354.29 14.99L354.29 16.49L347.59 16.49L347.59 22.99L355.87 22.99L355.87 24.49ZM373.10 24.49L371.94 20.41L366.40 20.41L365.25 24.49L363.61 24.49L368.74 6.98L369.57 6.98L374.72 24.49L373.10 24.49ZM369.12 10.84L366.82 18.91L371.52 18.91L369.21 10.84L369.17 10.19L369.12 10.84ZM395.82 24.49L394.25 24.49L394.25 12.49L394.14 13.23L390.07 24.49L389.24 24.49L385.14 13.23L385.04 12.49L385.04 24.49L383.47 24.49L383.47 6.98L384.28 6.98L389.59 21.34L389.64 21.98L389.69 21.34L394.99 6.98L395.82 6.98L395.82 24.49ZM415.91 19.91L415.91 20.43Q415.91 21.33 415.55 22.11Q415.19 22.89 414.58 23.47Q413.98 24.06 413.18 24.40Q412.38 24.73 411.49 24.73L411.49 24.73L410.23 24.73Q409.34 24.73 408.54 24.40Q407.74 24.06 407.14 23.47Q406.53 22.89 406.17 22.11Q405.81 21.33 405.81 20.43L405.81 20.43L405.81 19.74L407.39 19.48L407.39 20.43Q407.39 21.02 407.62 21.53Q407.86 22.03 408.26 22.42Q408.67 22.80 409.20 23.02Q409.73 23.24 410.32 23.24L410.32 23.24L411.41 23.24Q412 23.24 412.52 23.02Q413.05 22.80 413.45 22.42Q413.86 22.03 414.09 21.53Q414.33 21.02 414.33 20.43L414.33 20.43L414.33 19.91Q414.33 19.01 413.98 18.41Q413.62 17.81 413.04 17.39Q412.45 16.97 411.71 16.67Q410.97 16.38 410.19 16.09Q409.41 15.80 408.67 15.44Q407.94 15.09 407.35 14.56Q406.76 14.03 406.41 13.26Q406.06 12.49 406.06 11.36L406.06 11.36L406.06 11.04Q406.06 10.14 406.39 9.36Q406.73 8.58 407.31 8.00Q407.90 7.41 408.69 7.07Q409.47 6.74 410.36 6.74L410.36 6.74L411.49 6.74Q412.38 6.74 413.16 7.07Q413.94 7.41 414.53 8.00Q415.11 8.58 415.45 9.36Q415.78 10.14 415.78 11.04L415.78 11.04L415.78 11.49L414.21 11.74L414.21 11.04Q414.21 10.45 413.99 9.94Q413.77 9.44 413.39 9.06Q413.01 8.68 412.51 8.46Q412 8.24 411.41 8.24L411.41 8.24L410.44 8.24Q409.85 8.24 409.34 8.46Q408.84 8.68 408.45 9.06Q408.07 9.44 407.85 9.94Q407.63 10.45 407.63 11.04L407.63 11.04L407.63 11.36Q407.63 12.21 407.98 12.78Q408.34 13.35 408.92 13.76Q409.51 14.17 410.25 14.47Q410.99 14.77 411.77 15.08Q412.55 15.39 413.29 15.77Q414.03 16.14 414.61 16.68Q415.20 17.22 415.55 18.01Q415.91 18.79 415.91 19.91L415.91 19.91Z" transform="translate(0, 0)"></path></g></svg> <svg y="420.61" viewBox="4.840000152587891 8.489999771118164 588.25 42.63999938964844" x="108.47" height="42.63999938964844" width="588.25" style="overflow: visible;"><g fill="#545454" fill-opacity="1" style=""><path d="M7.30 15.62Q7.30 13.34 6.75 12.17Q6.21 11.00 5.53 10.60Q4.84 10.20 4.84 10.32L4.84 10.32L13.91 10.32Q13.91 10.20 13.22 10.60Q12.54 11.00 11.97 12.17Q11.40 13.34 11.40 15.62L11.40 15.62L11.40 47.25L20.75 47.25Q23.31 47.25 25.17 46.20Q27.02 45.14 27.82 43.49L27.82 43.49L26.79 49.53L4.84 49.53Q4.84 49.70 5.53 49.28Q6.21 48.85 6.75 47.57Q7.30 46.28 7.30 43.83L7.30 43.83L7.30 15.62ZM60.31 49.53L38.82 49.53Q38.82 49.70 39.50 49.28Q40.19 48.85 40.73 47.57Q41.27 46.28 41.27 43.83L41.27 43.83L41.27 15.85Q41.27 13.51 40.73 12.28Q40.19 11.06 39.50 10.60Q38.82 10.15 38.82 10.32L38.82 10.32L59.45 10.32L59.45 16.02Q58.42 12.60 53.30 12.60L53.30 12.60L45.37 12.60L45.37 28.79L55.18 28.79Q56.32 28.79 57.11 28.41Q57.91 28.04 58.31 27.64Q58.71 27.25 58.77 27.13L58.77 27.13L58.77 32.66Q58.71 32.55 58.31 32.15Q57.91 31.75 57.14 31.41Q56.37 31.07 55.23 31.07L55.23 31.07L45.37 31.07L45.37 47.25L54.26 47.25Q56.83 47.25 58.68 46.20Q60.53 45.14 61.33 43.49L61.33 43.49L60.31 49.53ZM89.38 12.60L80.60 12.60L80.60 28.79L90.46 28.79Q92.57 28.79 93.28 28.16Q93.99 27.53 93.99 27.13L93.99 27.13L93.99 32.72Q93.99 32.55 93.74 32.18Q93.48 31.81 92.71 31.44Q91.94 31.07 90.46 31.07L90.46 31.07L80.60 31.07L80.60 44.23Q80.60 46.45 81.17 47.62Q81.74 48.79 82.42 49.22Q83.11 49.65 83.11 49.53L83.11 49.53L74.04 49.53Q74.04 49.65 74.73 49.25Q75.41 48.85 75.95 47.68Q76.49 46.51 76.49 44.23L76.49 44.23L76.49 15.90Q76.49 13.57 75.95 12.34Q75.41 11.12 74.73 10.63Q74.04 10.15 74.04 10.32L74.04 10.32L94.68 10.32L94.68 16.13Q94.39 14.76 93.08 13.68Q91.77 12.60 89.38 12.60L89.38 12.60ZM138.91 49.53L131.90 49.53L114 29.58L114 44.29Q114 47.14 114.80 48.28Q115.60 49.42 116.28 49.53L116.28 49.53L107.50 49.53Q108.19 49.42 109.04 48.31Q109.90 47.20 109.90 44.29L109.90 44.29L109.90 15.62Q109.90 12.71 109.10 11.63Q108.30 10.55 107.50 10.32L107.50 10.32L116.28 10.32Q115.60 10.43 114.80 11.54Q114 12.65 114 15.62L114 15.62L114 29.41L127.51 15.96Q130.76 12.71 130.76 11.51L130.76 11.51Q130.76 10.49 129.96 10.32L129.96 10.32L138.91 10.32Q138.00 10.43 136.03 11.54Q134.06 12.65 130.99 15.73L130.99 15.73L118.22 28.39L132.64 44.06Q135.26 47.08 136.77 48.19Q138.28 49.30 138.91 49.53L138.91 49.53ZM169.97 34.31L155.78 34.31L152.13 43.38Q151.28 45.49 151.28 46.85L151.28 46.85Q151.28 48.73 152.99 49.53L152.99 49.53L144.84 49.53Q145.41 49.53 146.49 48.39Q147.57 47.25 149.00 43.89L149.00 43.89L163.87 8.49L178.64 44.06Q179.89 47.14 181.06 48.28Q182.23 49.42 182.91 49.53L182.91 49.53L173.45 49.53Q174.88 48.85 174.88 47.42L174.88 47.42Q174.88 46.23 173.96 44.00L173.96 44.00L169.97 34.31ZM156.75 31.98L169.06 31.98L162.85 16.76L156.75 31.98ZM218.48 46.34Q213.12 49.53 204.17 49.53L204.17 49.53L192.94 49.53Q192.94 49.70 193.63 49.22Q194.31 48.73 194.85 47.42Q195.40 46.11 195.40 43.61L195.40 43.61L195.40 15.56Q195.40 13.34 194.85 12.17Q194.31 11.00 193.63 10.60Q192.94 10.20 192.94 10.32L192.94 10.32L204.12 10.32Q212.84 10.32 217.91 13.17L217.91 13.17Q222.41 15.67 224.86 19.95Q227.32 24.23 227.32 29.58L227.32 29.58Q227.32 35.40 225.01 39.64Q222.70 43.89 218.48 46.34L218.48 46.34ZM216.26 15.73Q213.75 14.08 210.90 13.34Q208.05 12.60 204.12 12.60L204.12 12.60L199.50 12.60L199.50 47.25L204.12 47.25Q208.79 47.25 211.78 46.45Q214.78 45.66 216.94 44.00L216.94 44.00Q219.73 41.84 221.25 38.33Q222.76 34.83 222.76 30.15L222.76 30.15Q222.76 25.19 221.02 21.46Q219.28 17.73 216.26 15.73L216.26 15.73ZM261.86 34.31L247.66 34.31L244.02 43.38Q243.16 45.49 243.16 46.85L243.16 46.85Q243.16 48.73 244.87 49.53L244.87 49.53L236.72 49.53Q237.29 49.53 238.37 48.39Q239.46 47.25 240.88 43.89L240.88 43.89L255.76 8.49L270.52 44.06Q271.78 47.14 272.94 48.28Q274.11 49.42 274.80 49.53L274.80 49.53L265.33 49.53Q266.76 48.85 266.76 47.42L266.76 47.42Q266.76 46.23 265.85 44.00L265.85 44.00L261.86 34.31ZM248.63 31.98L260.95 31.98L254.73 16.76L248.63 31.98ZM323.59 50.16Q318.17 50.16 313.56 47.88Q308.94 45.60 306.15 41.04Q303.35 36.48 303.35 29.93L303.35 29.93Q303.35 24.11 306.00 19.49Q308.65 14.88 313.47 12.26Q318.29 9.63 324.56 9.63L324.56 9.63Q328.55 9.63 331.77 10.55Q334.99 11.46 336.87 12.54L336.87 12.54L336.87 18.87Q335.10 15.79 331.60 13.91Q328.09 12.03 324.44 12.03L324.44 12.03Q319.37 12.03 315.64 14.16Q311.90 16.30 309.91 20.23Q307.91 24.17 307.91 29.47L307.91 29.47Q307.91 35.23 310.22 39.33Q312.53 43.43 316.35 45.49Q320.17 47.54 324.67 47.54L324.67 47.54Q326.72 47.54 328.92 47.05Q331.11 46.57 332.99 45.66L332.99 45.66L332.99 36.25Q332.99 34.48 332.42 33.49Q331.85 32.49 331.17 32.06Q330.49 31.64 330.49 31.75L330.49 31.75L339.61 31.75Q339.61 31.64 338.92 31.98Q338.24 32.32 337.67 33.26Q337.10 34.20 337.10 35.91L337.10 35.91L337.10 46.28Q334.08 48.16 330.57 49.16Q327.07 50.16 323.59 50.16L323.59 50.16ZM373.92 34.31L359.73 34.31L356.08 43.38Q355.22 45.49 355.22 46.85L355.22 46.85Q355.22 48.73 356.93 49.53L356.93 49.53L348.78 49.53Q349.35 49.53 350.44 48.39Q351.52 47.25 352.94 43.89L352.94 43.89L367.82 8.49L382.58 44.06Q383.84 47.14 385.01 48.28Q386.17 49.42 386.86 49.53L386.86 49.53L377.40 49.53Q378.82 48.85 378.82 47.42L378.82 47.42Q378.82 46.23 377.91 44.00L377.91 44.00L373.92 34.31ZM360.70 31.98L373.01 31.98L366.79 16.76L360.70 31.98ZM408.35 29.81Q410.97 29.81 412.91 28.59Q414.85 27.36 415.84 25.39Q416.84 23.43 416.84 21.26L416.84 21.26Q416.84 19.04 415.90 17.07Q414.96 15.10 413.02 13.85Q411.08 12.60 408.29 12.60L408.29 12.60L403.45 12.60L403.45 44.29Q403.45 46.57 404.02 47.74Q404.59 48.91 405.27 49.28Q405.95 49.65 405.95 49.53L405.95 49.53L396.89 49.53Q396.89 49.65 397.57 49.25Q398.26 48.85 398.80 47.71Q399.34 46.57 399.34 44.29L399.34 44.29L399.34 15.79Q399.34 13.45 398.80 12.23Q398.26 11.00 397.57 10.57Q396.89 10.15 396.89 10.32L396.89 10.32L408.18 10.32Q412.62 10.32 415.50 11.77Q418.38 13.22 419.66 15.53Q420.94 17.84 420.94 20.58L420.94 20.58Q420.94 22.86 419.86 25.05Q418.78 27.25 416.76 28.87Q414.73 30.50 412.05 31.12L412.05 31.12L411.14 31.29L421.17 44.06Q423.17 46.28 424.48 47.48Q425.79 48.68 426.39 49.08Q426.99 49.48 427.10 49.53L427.10 49.53L420.43 49.53L404.93 29.81L408.35 29.81ZM462.90 46.34Q457.54 49.53 448.59 49.53L448.59 49.53L437.36 49.53Q437.36 49.70 438.04 49.22Q438.73 48.73 439.27 47.42Q439.81 46.11 439.81 43.61L439.81 43.61L439.81 15.56Q439.81 13.34 439.27 12.17Q438.73 11.00 438.04 10.60Q437.36 10.20 437.36 10.32L437.36 10.32L448.53 10.32Q457.25 10.32 462.33 13.17L462.33 13.17Q466.83 15.67 469.28 19.95Q471.73 24.23 471.73 29.58L471.73 29.58Q471.73 35.40 469.42 39.64Q467.11 43.89 462.90 46.34L462.90 46.34ZM460.67 15.73Q458.17 14.08 455.32 13.34Q452.47 12.60 448.53 12.60L448.53 12.60L443.92 12.60L443.92 47.25L448.53 47.25Q453.21 47.25 456.20 46.45Q459.19 45.66 461.36 44.00L461.36 44.00Q464.15 41.84 465.66 38.33Q467.17 34.83 467.17 30.15L467.17 30.15Q467.17 25.19 465.43 21.46Q463.69 17.73 460.67 15.73L460.67 15.73ZM506.39 49.53L484.90 49.53Q484.90 49.70 485.58 49.28Q486.27 48.85 486.81 47.57Q487.35 46.28 487.35 43.83L487.35 43.83L487.35 15.85Q487.35 13.51 486.81 12.28Q486.27 11.06 485.58 10.60Q484.90 10.15 484.90 10.32L484.90 10.32L505.53 10.32L505.53 16.02Q504.51 12.60 499.38 12.60L499.38 12.60L491.45 12.60L491.45 28.79L501.26 28.79Q502.40 28.79 503.20 28.41Q503.99 28.04 504.39 27.64Q504.79 27.25 504.85 27.13L504.85 27.13L504.85 32.66Q504.79 32.55 504.39 32.15Q503.99 31.75 503.22 31.41Q502.45 31.07 501.31 31.07L501.31 31.07L491.45 31.07L491.45 47.25L500.35 47.25Q502.91 47.25 504.76 46.20Q506.62 45.14 507.41 43.49L507.41 43.49L506.39 49.53ZM548.80 10.32L556.83 10.32Q556.03 10.49 555.27 11.60Q554.50 12.71 554.50 15.50L554.50 15.50L554.50 51.13L525.31 17.10L525.31 44.40Q525.31 47.14 526.28 48.25Q527.25 49.36 528.16 49.53L528.16 49.53L520.13 49.53Q520.92 49.36 521.75 48.25Q522.58 47.14 522.58 44.35L522.58 44.35L522.58 15.85Q522.58 13.91 521.26 12.31Q519.95 10.72 517.96 10.32L517.96 10.32L525.03 10.32L551.76 41.50L551.76 15.50Q551.76 11.12 548.80 10.32L548.80 10.32ZM581.23 50.22Q578.26 50.22 575.53 49.39Q572.79 48.56 570.63 47.08L570.63 47.08L570.63 40.19Q572.11 44.00 575.16 45.97Q578.21 47.94 581.51 47.94L581.51 47.94Q584.82 47.94 587.04 45.74Q589.27 43.55 589.27 40.30L589.27 40.30Q589.27 38.13 588.38 36.59Q587.50 35.05 585.56 33.72Q583.62 32.38 580.09 30.72L580.09 30.72Q575.13 28.44 572.88 25.96Q570.63 23.48 570.63 19.95L570.63 19.95Q570.63 16.93 572.08 14.56Q573.53 12.20 576.01 10.92Q578.49 9.63 581.46 9.63L581.46 9.63Q584.02 9.63 586.47 10.35Q588.92 11.06 591.03 12.37L591.03 12.37L591.03 18.52Q589.66 15.39 586.90 13.65Q584.14 11.91 581.29 11.91L581.29 11.91Q578.04 11.91 576.04 14.02Q574.05 16.13 574.05 19.04L574.05 19.04Q574.05 21.15 575.24 22.66Q576.44 24.17 578.18 25.19Q579.92 26.22 583.05 27.70L583.05 27.70Q586.25 29.24 588.30 30.55Q590.35 31.86 591.72 33.97Q593.09 36.08 593.09 39.10L593.09 39.10Q593.09 42.52 591.46 45.03Q589.84 47.54 587.13 48.88Q584.42 50.22 581.23 50.22L581.23 50.22Z" transform="translate(0, 0)"></path></g></svg></svg>